<svg width="21" height="26" viewBox="0 0 21 26" fill="none" xmlns="http://www.w3.org/2000/svg">
<path d="M19.0909 10.2143C19.0909 7.99783 18.1858 5.87216 16.5747 4.30489C14.9636 2.73762 12.7785 1.85714 10.5 1.85714C8.22155 1.85714 6.03642 2.73762 4.42531 4.30489C2.8142 5.87216 1.90909 7.99783 1.90909 10.2143C1.90909 13.6426 4.72882 18.1109 10.5 23.4631C16.2712 18.1109 19.0909 13.6426 19.0909 10.2143ZM10.5 26C3.49936 19.8101 0 14.547 0 10.2143C0 7.50529 1.10625 4.90725 3.07538 2.9917C5.04451 1.07615 7.71523 0 10.5 0C13.2848 0 15.9555 1.07615 17.9246 2.9917C19.8938 4.90725 21 7.50529 21 10.2143C21 14.547 17.5006 19.8101 10.5 26Z" fill="#C3C5C8"/>
<path d="M10.5003 12.9999C11.2598 12.9999 11.9881 12.7064 12.5252 12.1839C13.0622 11.6615 13.3639 10.953 13.3639 10.2141C13.3639 9.47533 13.0622 8.76677 12.5252 8.24435C11.9881 7.72193 11.2598 7.42843 10.5003 7.42843C9.74078 7.42843 9.01241 7.72193 8.47537 8.24435C7.93833 8.76677 7.63663 9.47533 7.63663 10.2141C7.63663 10.953 7.93833 11.6615 8.47537 12.1839C9.01241 12.7064 9.74078 12.9999 10.5003 12.9999ZM10.5003 14.857C9.23446 14.857 8.0205 14.3678 7.12544 13.4971C6.23038 12.6264 5.72754 11.4455 5.72754 10.2141C5.72754 8.98278 6.23038 7.80186 7.12544 6.93115C8.0205 6.06045 9.23446 5.57129 10.5003 5.57129C11.7661 5.57129 12.98 6.06045 13.8751 6.93115C14.7702 7.80186 15.273 8.98278 15.273 10.2141C15.273 11.4455 14.7702 12.6264 13.8751 13.4971C12.98 14.3678 11.7661 14.857 10.5003 14.857Z" fill="#C3C5C8"/>
</svg>
