<svg width="20" height="20" viewBox="0 0 20 20" fill="none" xmlns="http://www.w3.org/2000/svg">
<path d="M12.2655 1.26964C12.2862 1.19189 12.3221 1.11899 12.371 1.05511C12.4199 0.991224 12.4809 0.937611 12.5506 0.897334C12.6202 0.857056 12.6972 0.830904 12.7769 0.820372C12.8567 0.809841 12.9378 0.815136 13.0155 0.835956C14.4943 1.2217 15.8435 1.99471 16.9241 3.07535C18.0048 4.156 18.7778 5.50521 19.1635 6.98399C19.1843 7.06172 19.1896 7.14278 19.1791 7.22255C19.1686 7.30232 19.1424 7.37923 19.1021 7.44889C19.0619 7.51855 19.0083 7.57958 18.9444 7.6285C18.8805 7.67743 18.8076 7.71328 18.7298 7.734C18.6782 7.74774 18.6251 7.7546 18.5717 7.75441C18.4368 7.75449 18.3056 7.71002 18.1986 7.62791C18.0916 7.5458 18.0147 7.43064 17.9798 7.30032C17.6487 6.03009 16.9848 4.87115 16.0565 3.94293C15.1283 3.01472 13.9694 2.35081 12.6992 2.01964C12.6214 1.99892 12.5485 1.96307 12.4846 1.91414C12.4207 1.86522 12.3671 1.80419 12.3268 1.73453C12.2866 1.66488 12.2604 1.58796 12.2499 1.50819C12.2394 1.42842 12.2447 1.34736 12.2655 1.26964ZM11.8828 5.28499C13.3675 5.68092 14.3186 6.63195 14.7145 8.11666C14.7493 8.24698 14.8262 8.36214 14.9333 8.44425C15.0403 8.52636 15.1714 8.57083 15.3063 8.57075C15.3597 8.57094 15.4129 8.56408 15.4645 8.55034C15.5422 8.52961 15.6151 8.49376 15.679 8.44484C15.7429 8.39592 15.7965 8.33488 15.8368 8.26523C15.8771 8.19557 15.9032 8.11866 15.9138 8.03889C15.9243 7.95912 15.919 7.87805 15.8982 7.80033C15.388 5.89112 14.1084 4.61151 12.1991 4.1013C12.1214 4.08053 12.0404 4.07527 11.9606 4.08583C11.8809 4.09638 11.804 4.12254 11.7343 4.16281C11.5937 4.24414 11.4911 4.37802 11.4491 4.53498C11.4072 4.69195 11.4293 4.85915 11.5106 4.99981C11.592 5.14046 11.7258 5.24304 11.8828 5.28499ZM19.989 15.1831C19.8142 16.517 19.1596 17.7416 18.1476 18.628C17.1355 19.5144 15.8353 20.0019 14.49 19.9995C6.50009 19.9995 1.01758e-05 13.4994 1.01758e-05 5.50949C-0.00256716 4.16461 0.484526 2.86479 1.3703 1.85282C2.25608 0.840855 3.47996 0.185948 4.81334 0.0104353C5.12028 -0.0268656 5.43103 0.0364242 5.69894 0.1908C5.96684 0.345175 6.17743 0.582303 6.29907 0.866569L8.45216 5.67275C8.54722 5.89033 8.58656 6.12818 8.56661 6.36478C8.54665 6.60139 8.46804 6.82929 8.33787 7.02787C8.32474 7.04809 8.31043 7.06751 8.29501 7.08604L6.14499 9.64321C6.13193 9.66972 6.12514 9.69887 6.12514 9.72842C6.12514 9.75796 6.13193 9.78712 6.14499 9.81362C6.92663 11.4136 8.6042 13.079 10.2267 13.8596C10.2538 13.8719 10.2834 13.8778 10.3131 13.8768C10.3429 13.8757 10.372 13.8677 10.3981 13.8535L12.9175 11.7106C12.9355 11.6949 12.9546 11.6806 12.9747 11.6677C13.1724 11.5359 13.3998 11.4555 13.6364 11.4338C13.8731 11.412 14.1114 11.4497 14.3298 11.5432L19.1503 13.7035C19.4307 13.8278 19.6637 14.0391 19.8148 14.3061C19.9659 14.5731 20.027 14.8817 19.989 15.1861V15.1831ZM18.7758 15.0321C18.7792 14.9894 18.7691 14.9467 18.7469 14.9101C18.7248 14.8735 18.6917 14.8447 18.6523 14.828L13.8308 12.6677C13.8045 12.6576 13.7762 12.6532 13.748 12.655C13.7199 12.6567 13.6924 12.6646 13.6675 12.6779L11.1491 14.8208C11.1308 14.8361 11.1114 14.8504 11.092 14.8637C10.8866 15.0007 10.6491 15.0821 10.4029 15.1C10.1566 15.1178 9.90993 15.0716 9.68687 14.9657C7.81337 14.0606 5.946 12.2106 5.04089 10.3544C4.93443 10.1327 4.88705 9.88718 4.90331 9.64173C4.91958 9.39628 4.99896 9.15918 5.13375 8.95341C5.14689 8.93294 5.16156 8.9135 5.17763 8.89524L7.32663 6.33807C7.33891 6.31134 7.34527 6.28228 7.34527 6.25286C7.34527 6.22345 7.33891 6.19438 7.32663 6.16766L5.17763 1.35739C5.16344 1.31879 5.13793 1.28537 5.10442 1.26151C5.07092 1.23766 5.03099 1.22448 4.98987 1.22372H4.9664C3.92857 1.36177 2.97647 1.87285 2.28789 2.66152C1.59931 3.45019 1.22132 4.46252 1.22452 5.50949C1.22452 12.8239 7.17561 18.775 14.49 18.775C15.5371 18.7781 16.5496 18.4 17.3383 17.7112C18.127 17.0224 18.6379 16.0701 18.7758 15.0321Z" fill="#C3C5C8"/>
</svg>
